<?xml version="1.0" encoding="UTF-8" standalone="no"?>
<!-- Created with Inkscape (http://www.inkscape.org/) -->

<svg
   xmlns:dc="http://purl.org/dc/elements/1.1/"
   xmlns:cc="http://creativecommons.org/ns#"
   xmlns:rdf="http://www.w3.org/1999/02/22-rdf-syntax-ns#"
   xmlns:svg="http://www.w3.org/2000/svg"
   xmlns="http://www.w3.org/2000/svg"
   xmlns:sodipodi="http://sodipodi.sourceforge.net/DTD/sodipodi-0.dtd"
   xmlns:inkscape="http://www.inkscape.org/namespaces/inkscape"
   width="64px"
   height="64px"
   id="svg4672"
   version="1.1"
   inkscape:version="0.48.3.1 r9886"
   sodipodi:docname="New document 29">
  <defs
     id="defs4674" />
  <sodipodi:namedview
     id="base"
     pagecolor="#ffffff"
     bordercolor="#666666"
     borderopacity="1.0"
     inkscape:pageopacity="0.0"
     inkscape:pageshadow="2"
     inkscape:zoom="3.8890873"
     inkscape:cx="15.724754"
     inkscape:cy="46.55204"
     inkscape:current-layer="layer1"
     showgrid="true"
     inkscape:document-units="px"
     inkscape:grid-bbox="true"
     inkscape:window-width="925"
     inkscape:window-height="749"
     inkscape:window-x="125"
     inkscape:window-y="125"
     inkscape:window-maximized="0" />
  <metadata
     id="metadata4677">
    <rdf:RDF>
      <cc:Work
         rdf:about="">
        <dc:format>image/svg+xml</dc:format>
        <dc:type
           rdf:resource="http://purl.org/dc/dcmitype/StillImage" />
        <dc:title></dc:title>
      </cc:Work>
    </rdf:RDF>
  </metadata>
  <g
     id="layer1"
     inkscape:label="Layer 1"
     inkscape:groupmode="layer">
    <rect
       style="fill:#c30000;fill-opacity:1;stroke:none"
       id="rect4458"
       width="62.239742"
       height="63.517578"
       x="1.1022511"
       y="0.81933647"
       ry="5.6586852" />
    <path
       sodipodi:type="arc"
       style="fill:#828282;fill-opacity:1;stroke:none"
       id="path2985"
       sodipodi:cx="315.71429"
       sodipodi:cy="480.21933"
       sodipodi:rx="174.28572"
       sodipodi:ry="167.85715"
       d="m 490.00002,480.21933 a 174.28572,167.85715 0 1 1 -348.57145,0 174.28572,167.85715 0 1 1 348.57145,0 z"
       transform="matrix(0.1228254,0,0,0.12735734,2.8256764,-18.544627)"
       inkscape:export-filename="C:\Users\Sergio\Desktop\LD25\assets\gfx\astrid.png"
       inkscape:export-xdpi="90.330002"
       inkscape:export-ydpi="90.330002" />
    <path
       sodipodi:type="arc"
       style="opacity:0.98999999;fill:#000000;fill-opacity:0.43386242;stroke:none"
       id="path3755"
       sodipodi:cx="241.42857"
       sodipodi:cy="429.50504"
       sodipodi:rx="48.57143"
       sodipodi:ry="45.714287"
       d="m 290,429.50504 a 48.57143,45.714287 0 1 1 -97.14286,0 48.57143,45.714287 0 1 1 97.14286,0 z"
       transform="matrix(0.15448142,0,0,0.15348192,-1.651394,-35.256096)"
       inkscape:export-filename="C:\Users\Sergio\Desktop\LD25\assets\gfx\astrid.png"
       inkscape:export-xdpi="90.330002"
       inkscape:export-ydpi="90.330002" />
    <path
       transform="matrix(0.10223036,0,0,0.10156892,28.949555,4.7621604)"
       sodipodi:type="arc"
       style="opacity:0.98999999;fill:#000000;fill-opacity:0.43386242;stroke:none"
       id="path3755-1"
       sodipodi:cx="241.42857"
       sodipodi:cy="429.50504"
       sodipodi:rx="48.57143"
       sodipodi:ry="45.714287"
       d="m 290,429.50504 a 48.57143,45.714287 0 1 1 -97.14286,0 48.57143,45.714287 0 1 1 97.14286,0 z"
       inkscape:export-filename="C:\Users\Sergio\Desktop\LD25\assets\gfx\astrid.png"
       inkscape:export-xdpi="90.330002"
       inkscape:export-ydpi="90.330002" />
    <path
       sodipodi:type="arc"
       style="opacity:0.98999999;fill:#000000;fill-opacity:0.43386242;stroke:none"
       id="path3775"
       sodipodi:cx="255.71428"
       sodipodi:cy="543.07648"
       sodipodi:rx="22.857143"
       sodipodi:ry="22.142857"
       d="m 278.57142,543.07648 a 22.857143,22.142857 0 1 1 -45.71428,0 22.857143,22.142857 0 1 1 45.71428,0 z"
       transform="matrix(0.15448142,0,0,0.15348192,-8.4927125,-35.256096)"
       inkscape:export-filename="C:\Users\Sergio\Desktop\LD25\assets\gfx\astrid.png"
       inkscape:export-xdpi="90.330002"
       inkscape:export-ydpi="90.330002" />
    <path
       sodipodi:type="arc"
       style="opacity:0.98999999;fill:#000000;fill-opacity:0.43386242;stroke:none"
       id="path3775-7"
       sodipodi:cx="255.71428"
       sodipodi:cy="543.07648"
       sodipodi:rx="22.857143"
       sodipodi:ry="22.142857"
       d="m 278.57142,543.07648 a 22.857143,22.142857 0 1 1 -45.71428,0 22.857143,22.142857 0 1 1 45.71428,0 z"
       transform="matrix(0.15448142,0,0,-0.15348192,11.369183,116.42945)"
       inkscape:export-filename="C:\Users\Sergio\Desktop\LD25\assets\gfx\astrid.png"
       inkscape:export-xdpi="90.330002"
       inkscape:export-ydpi="90.330002" />
    <path
       sodipodi:type="arc"
       style="opacity:0.98999999;fill:#000000;fill-opacity:0.43386242;stroke:none"
       id="path3775-4"
       sodipodi:cx="255.71428"
       sodipodi:cy="543.07648"
       sodipodi:rx="22.857143"
       sodipodi:ry="22.142857"
       d="m 278.57142,543.07648 a 22.857143,22.142857 0 1 1 -45.71428,0 22.857143,22.142857 0 1 1 45.71428,0 z"
       transform="matrix(0.08206827,0,0,0.08153727,20.507035,12.315099)"
       inkscape:export-filename="C:\Users\Sergio\Desktop\LD25\assets\gfx\astrid.png"
       inkscape:export-xdpi="90.330002"
       inkscape:export-ydpi="90.330002" />
    <path
       sodipodi:type="arc"
       style="opacity:0.98999999;fill:#000000;fill-opacity:1;stroke:none"
       id="path3802"
       sodipodi:cx="342.94678"
       sodipodi:cy="352.83154"
       sodipodi:rx="122.73354"
       sodipodi:ry="32.829956"
       d="m 465.68032,352.83154 a 122.73354,32.829956 0 1 1 -245.46709,0 122.73354,32.829956 0 1 1 245.46709,0 z"
       transform="matrix(0.13478563,0.02817193,-0.02516779,0.15087427,6.8879039,-36.685352)"
       inkscape:export-filename="C:\Users\Sergio\Desktop\LD25\assets\gfx\astrid.png"
       inkscape:export-xdpi="90.330002"
       inkscape:export-ydpi="90.330002" />
    <path
       style="fill:#000000;fill-opacity:1;stroke:#000000;stroke-width:0.18122466px;stroke-linecap:butt;stroke-linejoin:miter;stroke-opacity:1"
       d="M 35.455864,22.266725 37.286886,7.840484 c 0,0 13.00704,-1.9299893 22.16603,5.448202 l -5.251688,12.908072 z"
       id="path3804"
       inkscape:connector-curvature="0"
       sodipodi:nodetypes="ccccc"
       inkscape:export-filename="C:\Users\Sergio\Desktop\LD25\assets\gfx\astrid.png"
       inkscape:export-xdpi="90.330002"
       inkscape:export-ydpi="90.330002" />
    <path
       style="fill:#000000;fill-opacity:1;stroke:#000000;stroke-width:0.15398085px;stroke-linecap:butt;stroke-linejoin:miter;stroke-opacity:1"
       d="m 24.938924,45.426098 c 0,0 2.40813,0.186941 3.902643,3.605843 1.49452,3.418902 9.96997,-4.015119 9.96997,-4.015119 0,0 -9.284088,10.136016 -12.58053,3.91552 -2.691379,-5.078716 -1.292083,-3.506244 -1.292083,-3.506244 z"
       id="path3806"
       inkscape:connector-curvature="0"
       sodipodi:nodetypes="cscsc"
       inkscape:export-filename="C:\Users\Sergio\Desktop\LD25\assets\gfx\astrid.png"
       inkscape:export-xdpi="90.330002"
       inkscape:export-ydpi="90.330002" />
    <path
       style="fill:#000000;fill-opacity:1;stroke:#000000;stroke-width:0.15398085px;stroke-linecap:butt;stroke-linejoin:miter;stroke-opacity:1"
       d="m 25.401406,45.667692 c 0,0 -0.836438,-1.34444 -4.277602,0.140407 -3.441169,1.484846 -4.154577,-9.029878 -4.154577,-9.029878 0,0 -1.029621,13.168845 5.547088,10.575423 4.83924,-1.908274 2.885091,-1.685952 2.885091,-1.685952 z"
       id="path3806-0"
       inkscape:connector-curvature="0"
       sodipodi:nodetypes="cscsc"
       inkscape:export-filename="C:\Users\Sergio\Desktop\LD25\assets\gfx\astrid.png"
       inkscape:export-xdpi="90.330002"
       inkscape:export-ydpi="90.330002" />
    <rect
       style="fill:none;stroke:#642626;stroke-width:2.02518535;stroke-miterlimit:4;stroke-opacity:1;stroke-dasharray:none"
       id="rect4458-3"
       width="62.198109"
       height="61.590446"
       x="1.2983962"
       y="1.8599366"
       ry="5.487" />
    <path
       sodipodi:type="arc"
       style="fill:#6d6d6d;fill-opacity:1;stroke:none"
       id="path4018-7-41-0"
       sodipodi:cx="-591.44434"
       sodipodi:cy="818.51184"
       sodipodi:rx="25.75889"
       sodipodi:ry="15.657365"
       d="m -565.68545,818.51184 a 25.75889,15.657365 0 1 1 -51.51778,0 25.75889,15.657365 0 1 1 51.51778,0 z"
       inkscape:export-filename="C:\Users\Sergio\Desktop\LD25\assets\gfx\mine_gold.png"
       inkscape:export-xdpi="70.040001"
       inkscape:export-ydpi="70.040001"
       transform="matrix(-0.16287454,0.0592336,-0.05996119,-0.16089814,-27.081217,176.93881)"
       inkscape:transform-center-x="-5.198537"
       inkscape:transform-center-y="-1.6502363" />
    <path
       sodipodi:type="arc"
       style="fill:#ffff00;fill-opacity:1;stroke:none"
       id="path4020-1-2-0"
       sodipodi:cx="-590.93921"
       sodipodi:cy="808.91541"
       sodipodi:rx="18.182745"
       sodipodi:ry="11.111678"
       d="m -572.75646,808.91541 a 18.182745,11.111678 0 1 1 -36.36549,0 18.182745,11.111678 0 1 1 36.36549,0 z"
       transform="matrix(-0.14222543,0.05172401,-0.05235937,-0.1404996,-20.997478,155.85514)"
       inkscape:export-filename="C:\Users\Sergio\Desktop\LD25\assets\gfx\mine_gold.png"
       inkscape:export-xdpi="70.040001"
       inkscape:export-ydpi="70.040001"
       inkscape:transform-center-x="-5.7222749"
       inkscape:transform-center-y="-0.22151371" />
    <path
       sodipodi:type="arc"
       style="fill:#6d6d6d;fill-opacity:1;stroke:none"
       id="path4018-7-41-8"
       sodipodi:cx="-591.44434"
       sodipodi:cy="818.51184"
       sodipodi:rx="25.75889"
       sodipodi:ry="15.657365"
       d="m -565.68545,818.51184 a 25.75889,15.657365 0 1 1 -51.51778,0 25.75889,15.657365 0 1 1 51.51778,0 z"
       inkscape:export-filename="C:\Users\Sergio\Desktop\LD25\assets\gfx\mine_gold.png"
       inkscape:export-xdpi="70.040001"
       inkscape:export-ydpi="70.040001"
       transform="matrix(0.1729054,-0.01488976,0.01507265,0.17080728,103.1263,-125.77416)"
       inkscape:transform-center-x="5.4547789"
       inkscape:transform-center-y="0.24333545" />
    <path
       sodipodi:type="arc"
       style="fill:#ffff00;fill-opacity:1;stroke:none"
       id="path4020-1-2-1"
       sodipodi:cx="-590.93921"
       sodipodi:cy="808.91541"
       sodipodi:rx="18.182745"
       sodipodi:ry="11.111678"
       d="m -572.75646,808.91541 a 18.182745,11.111678 0 1 1 -36.36549,0 18.182745,11.111678 0 1 1 36.36549,0 z"
       transform="matrix(0.15098459,-0.01300204,0.01316176,0.14915247,91.650023,-107.0095)"
       inkscape:export-filename="C:\Users\Sergio\Desktop\LD25\assets\gfx\mine_gold.png"
       inkscape:export-xdpi="70.040001"
       inkscape:export-ydpi="70.040001"
       inkscape:transform-center-x="5.5802393"
       inkscape:transform-center-y="-1.2711095" />
    <path
       sodipodi:type="arc"
       style="fill:#6d6d6d;fill-opacity:1;stroke:none"
       id="path4018-7-41-3"
       sodipodi:cx="-591.44434"
       sodipodi:cy="818.51184"
       sodipodi:rx="25.75889"
       sodipodi:ry="15.657365"
       d="m -565.68545,818.51184 a 25.75889,15.657365 0 1 1 -51.51778,0 25.75889,15.657365 0 1 1 51.51778,0 z"
       inkscape:export-filename="C:\Users\Sergio\Desktop\LD25\assets\gfx\mine_gold.png"
       inkscape:export-xdpi="70.040001"
       inkscape:export-ydpi="70.040001"
       transform="matrix(0.12254088,0.12141986,-0.12291133,0.12105391,180.50574,-16.097477)"
       inkscape:transform-center-x="3.6901376"
       inkscape:transform-center-y="-3.9758395" />
    <path
       sodipodi:type="arc"
       style="fill:#ffff00;fill-opacity:1;stroke:none"
       id="path4020-1-2-8"
       sodipodi:cx="-590.93921"
       sodipodi:cy="808.91541"
       sodipodi:rx="18.182745"
       sodipodi:ry="11.111678"
       d="m -572.75646,808.91541 a 18.182745,11.111678 0 1 1 -36.36549,0 18.182745,11.111678 0 1 1 36.36549,0 z"
       transform="matrix(0.10700524,0.10602635,-0.10732872,0.10570678,158.57372,-12.746354)"
       inkscape:export-filename="C:\Users\Sergio\Desktop\LD25\assets\gfx\mine_gold.png"
       inkscape:export-xdpi="70.040001"
       inkscape:export-ydpi="70.040001"
       inkscape:transform-center-x="2.5951069"
       inkscape:transform-center-y="-5.0429705" />
  </g>
</svg>
